<svg xmlns="http://www.w3.org/2000/svg" width="300.5" height="48" viewBox="0 0 300.5 48">
  <g id="Grupo_1" data-name="Grupo 1" transform="translate(-38 103)">
    <rect id="Rectángulo_1" data-name="Rectángulo 1" width="300.5" height="48" transform="translate(38 -103)" fill="none"/>
    <path id="Trazado_2" data-name="Trazado 2" d="M49.867,46.715a8.248,8.248,0,0,0-8.284-8.3h-3.6V55h3.6a8.244,8.244,0,0,0,8.284-8.285m6.476,2.693L50.476,59.54h11.7Zm0-5.386,5.835-10.131h-11.7Zm6.444,2.693A8.244,8.244,0,0,0,71.071,55h3.605V38.412H71.071a8.248,8.248,0,0,0-8.284,8.3M330.638,60.21c-1.337,3.391-3.016,5.008-6.842,5.008a13.99,13.99,0,0,1-2.208-.156V60.8a11.909,11.909,0,0,0,1.679.187c1.275,0,2.084-.5,2.737-2.084l.4-.995-6.9-16.142h5.536l4.012,9.921,3.7-9.89h5.226L330.638,60.21M308.869,53.9a4.1,4.1,0,0,1,0-8.18,4.1,4.1,0,0,1,0,8.18m8.988,4.261V41.767H312.85v2.364a5.837,5.837,0,0,0-5.07-2.769c-4.7,0-7.806,3.639-7.806,8.46,0,4.79,3.234,8.18,7.868,8.18a5.85,5.85,0,0,0,4.946-2.488v2.768c0,2.3-1.213,3.577-3.639,3.577-2.146,0-3.328-1-3.546-2.457h-5.039c.28,3.576,3.111,6.127,8.46,6.127,5.941,0,8.833-2.675,8.833-7.371M289.43,53.9a3.821,3.821,0,0,1-3.795-4.075A3.819,3.819,0,1,1,289.43,53.9m0,4.385c5.6,0,8.926-3.888,8.926-8.46,0-4.6-3.328-8.491-8.926-8.491-5.536,0-8.895,3.888-8.895,8.491,0,4.572,3.359,8.46,8.895,8.46m-16.422-.435h5.07V34.52h-5.07ZM261.624,53.9a3.82,3.82,0,0,1-3.794-4.075,3.819,3.819,0,1,1,3.794,4.075m0,4.385c5.6,0,8.927-3.888,8.927-8.46,0-4.6-3.328-8.491-8.927-8.491-5.536,0-8.895,3.888-8.895,8.491,0,4.572,3.359,8.46,8.895,8.46m-27.37-.435h5.07v-8.4c0-2.27,1.058-3.732,3.11-3.732,2.178,0,2.862,1.337,2.862,3.265v8.865h5.069V48.609c0-4.541-1.99-7.247-6.064-7.247a5.4,5.4,0,0,0-5.039,2.737V41.767h-5.008Zm-19.314,0h5.07v-8.4c0-2.27,1.057-3.732,3.11-3.732,2.177,0,2.861,1.337,2.861,3.265v8.865h5.07V48.609c0-4.541-1.991-7.247-6.065-7.247A5.333,5.333,0,0,0,220.01,44.1V34.52h-5.07Zm-2.271-9.891c-.622-3.732-3.39-6.625-8.242-6.625a8.479,8.479,0,1,0,0,16.951c4.852,0,7.62-2.892,8.242-6.625h-5.1a3.122,3.122,0,0,1-3.11,2.333c-2.24,0-3.671-1.9-3.671-4.168s1.431-4.2,3.671-4.2a3.087,3.087,0,0,1,3.079,2.333Zm-26.934-3.017a3.2,3.2,0,0,1,3.359,3.11h-6.811a3.255,3.255,0,0,1,3.452-3.11m7.931,8.025h-4.821a3.19,3.19,0,0,1-3.048,1.648,3.315,3.315,0,0,1-3.546-3.483h11.695a14.55,14.55,0,0,0,.124-1.9c0-4.261-2.954-7.9-8.273-7.9-5.474,0-8.46,3.826-8.46,8.491,0,4.634,3.017,8.46,8.522,8.46,4.386,0,7-2.333,7.807-5.318m-29.454-11.2v3.981h2.519v6.531c0,4.417,2.115,5.816,5.941,5.816a18.617,18.617,0,0,0,3.172-.248V53.772a17.282,17.282,0,0,1-2.021.187c-1.307,0-2.022-.436-2.022-2.053V45.748h3.67V41.767H171.8V37.008h-5.07v4.759Zm-6.871,13.125a3.233,3.233,0,1,0,3.232-3.235,3.231,3.231,0,0,0-3.232,3.235m-12.41,3.359c6.438,0,9.952-3.857,10.637-8.771h-5.319a5.088,5.088,0,0,1-5.194,4.074c-4.012,0-6.1-3.2-6.1-6.9s2.084-6.905,6.1-6.905a5.089,5.089,0,0,1,5.194,4.074h5.319c-.685-4.914-4.2-8.77-10.637-8.77-7.185,0-11.353,5.474-11.353,11.6s4.168,11.6,11.353,11.6m-17.449-.4h6.159l-7.247-11.259,7.184-11.135h-6.033L123.1,42.824l-4.51-7.371H112.46l7.216,11.135L112.4,57.847h6l4.573-7.465ZM100.765,39.994a6.392,6.392,0,0,1,6.5,6.656,6.409,6.409,0,0,1-6.5,6.656H98.06V39.994ZM92.8,57.847h8.211c7.465,0,11.633-5.474,11.633-11.2s-4.2-11.2-11.633-11.2H92.8Z" transform="translate(0.021 -126.891)"/>
  </g>
</svg>
