<svg id="highlight_off_black_18dp" xmlns="http://www.w3.org/2000/svg" width="18" height="18" viewBox="0 0 18 18">
  <path id="Path_2943" data-name="Path 2943" d="M0,0H18V18H0Z" fill="none"/>
  <path id="Path_2944" data-name="Path 2944" d="M10,4a6,6,0,1,0,6,6A6.01,6.01,0,0,0,10,4Zm3,7.945L11.945,13,10,11.06,8.059,13,7,11.945,8.944,10,7,8.059,8.059,7,10,8.944,11.945,7,13,8.059,11.06,10Z" transform="translate(-1.002 -1.002)" fill="#ffe6e9"/>
  <path id="Path_2945" data-name="Path 2945" d="M11.444,6.5,9.5,8.443,7.558,6.5,6.5,7.558,8.443,9.5,6.5,11.444,7.558,12.5,9.5,10.558,11.444,12.5,12.5,11.444,10.558,9.5,12.5,7.558ZM9.5,2A7.5,7.5,0,1,0,17,9.5,7.494,7.494,0,0,0,9.5,2Zm0,13.5a6,6,0,1,1,6-6A6.009,6.009,0,0,1,9.5,15.5Z" transform="translate(-0.501 -0.501)" fill="#d0011b"/>
</svg>
